<svg height="200" width="200" xmlns="http://www.w3.org/2000/svg"><g shape-rendering="optimizeSpeed"><path d="m0 0h200v200h-200z" fill="#fff"/><path d="m17 17h5v5h-5z"/><path d="m22 17h5v5h-5z"/><path d="m27 17h5v5h-5z"/><path d="m32 17h5v5h-5z"/><path d="m37 17h5v5h-5z"/><path d="m42 17h5v5h-5z"/><path d="m47 17h5v5h-5z"/><path d="m57 17h5v5h-5z"/><path d="m82 17h5v5h-5z"/><path d="m97 17h5v5h-5z"/><path d="m102 17h5v5h-5z"/><path d="m117 17h5v5h-5z"/><path d="m122 17h5v5h-5z"/><path d="m132 17h5v5h-5z"/><path d="m147 17h5v5h-5z"/><path d="m152 17h5v5h-5z"/><path d="m157 17h5v5h-5z"/><path d="m162 17h5v5h-5z"/><path d="m167 17h5v5h-5z"/><path d="m172 17h5v5h-5z"/><path d="m177 17h5v5h-5z"/><path d="m17 22h5v5h-5z"/><path d="m47 22h5v5h-5z"/><path d="m57 22h5v5h-5z"/><path d="m72 22h5v5h-5z"/><path d="m77 22h5v5h-5z"/><path d="m82 22h5v5h-5z"/><path d="m87 22h5v5h-5z"/><path d="m112 22h5v5h-5z"/><path d="m127 22h5v5h-5z"/><path d="m147 22h5v5h-5z"/><path d="m177 22h5v5h-5z"/><path d="m17 27h5v5h-5z"/><path d="m27 27h5v5h-5z"/><path d="m32 27h5v5h-5z"/><path d="m37 27h5v5h-5z"/><path d="m47 27h5v5h-5z"/><path d="m57 27h5v5h-5z"/><path d="m62 27h5v5h-5z"/><path d="m77 27h5v5h-5z"/><path d="m87 27h5v5h-5z"/><path d="m92 27h5v5h-5z"/><path d="m102 27h5v5h-5z"/><path d="m107 27h5v5h-5z"/><path d="m122 27h5v5h-5z"/><path d="m127 27h5v5h-5z"/><path d="m147 27h5v5h-5z"/><path d="m157 27h5v5h-5z"/><path d="m162 27h5v5h-5z"/><path d="m167 27h5v5h-5z"/><path d="m177 27h5v5h-5z"/><path d="m17 32h5v5h-5z"/><path d="m27 32h5v5h-5z"/><path d="m32 32h5v5h-5z"/><path d="m37 32h5v5h-5z"/><path d="m47 32h5v5h-5z"/><path d="m57 32h5v5h-5z"/><path d="m62 32h5v5h-5z"/><path d="m67 32h5v5h-5z"/><path d="m77 32h5v5h-5z"/><path d="m82 32h5v5h-5z"/><path d="m92 32h5v5h-5z"/><path d="m97 32h5v5h-5z"/><path d="m107 32h5v5h-5z"/><path d="m117 32h5v5h-5z"/><path d="m127 32h5v5h-5z"/><path d="m147 32h5v5h-5z"/><path d="m157 32h5v5h-5z"/><path d="m162 32h5v5h-5z"/><path d="m167 32h5v5h-5z"/><path d="m177 32h5v5h-5z"/><path d="m17 37h5v5h-5z"/><path d="m27 37h5v5h-5z"/><path d="m32 37h5v5h-5z"/><path d="m37 37h5v5h-5z"/><path d="m47 37h5v5h-5z"/><path d="m62 37h5v5h-5z"/><path d="m67 37h5v5h-5z"/><path d="m77 37h5v5h-5z"/><path d="m82 37h5v5h-5z"/><path d="m92 37h5v5h-5z"/><path d="m97 37h5v5h-5z"/><path d="m107 37h5v5h-5z"/><path d="m122 37h5v5h-5z"/><path d="m132 37h5v5h-5z"/><path d="m147 37h5v5h-5z"/><path d="m157 37h5v5h-5z"/><path d="m162 37h5v5h-5z"/><path d="m167 37h5v5h-5z"/><path d="m177 37h5v5h-5z"/><path d="m17 42h5v5h-5z"/><path d="m47 42h5v5h-5z"/><path d="m57 42h5v5h-5z"/><path d="m62 42h5v5h-5z"/><path d="m67 42h5v5h-5z"/><path d="m87 42h5v5h-5z"/><path d="m102 42h5v5h-5z"/><path d="m112 42h5v5h-5z"/><path d="m122 42h5v5h-5z"/><path d="m127 42h5v5h-5z"/><path d="m137 42h5v5h-5z"/><path d="m147 42h5v5h-5z"/><path d="m177 42h5v5h-5z"/><path d="m17 47h5v5h-5z"/><path d="m22 47h5v5h-5z"/><path d="m27 47h5v5h-5z"/><path d="m32 47h5v5h-5z"/><path d="m37 47h5v5h-5z"/><path d="m42 47h5v5h-5z"/><path d="m47 47h5v5h-5z"/><path d="m57 47h5v5h-5z"/><path d="m67 47h5v5h-5z"/><path d="m77 47h5v5h-5z"/><path d="m87 47h5v5h-5z"/><path d="m97 47h5v5h-5z"/><path d="m107 47h5v5h-5z"/><path d="m117 47h5v5h-5z"/><path d="m127 47h5v5h-5z"/><path d="m137 47h5v5h-5z"/><path d="m147 47h5v5h-5z"/><path d="m152 47h5v5h-5z"/><path d="m157 47h5v5h-5z"/><path d="m162 47h5v5h-5z"/><path d="m167 47h5v5h-5z"/><path d="m172 47h5v5h-5z"/><path d="m177 47h5v5h-5z"/><path d="m67 52h5v5h-5z"/><path d="m72 52h5v5h-5z"/><path d="m102 52h5v5h-5z"/><path d="m112 52h5v5h-5z"/><path d="m117 52h5v5h-5z"/><path d="m122 52h5v5h-5z"/><path d="m127 52h5v5h-5z"/><path d="m17 57h5v5h-5z"/><path d="m22 57h5v5h-5z"/><path d="m37 57h5v5h-5z"/><path d="m42 57h5v5h-5z"/><path d="m47 57h5v5h-5z"/><path d="m67 57h5v5h-5z"/><path d="m77 57h5v5h-5z"/><path d="m82 57h5v5h-5z"/><path d="m97 57h5v5h-5z"/><path d="m102 57h5v5h-5z"/><path d="m122 57h5v5h-5z"/><path d="m127 57h5v5h-5z"/><path d="m152 57h5v5h-5z"/><path d="m162 57h5v5h-5z"/><path d="m167 57h5v5h-5z"/><path d="m172 57h5v5h-5z"/><path d="m177 57h5v5h-5z"/><path d="m17 62h5v5h-5z"/><path d="m27 62h5v5h-5z"/><path d="m37 62h5v5h-5z"/><path d="m82 62h5v5h-5z"/><path d="m92 62h5v5h-5z"/><path d="m117 62h5v5h-5z"/><path d="m132 62h5v5h-5z"/><path d="m142 62h5v5h-5z"/><path d="m152 62h5v5h-5z"/><path d="m167 62h5v5h-5z"/><path d="m22 67h5v5h-5z"/><path d="m32 67h5v5h-5z"/><path d="m47 67h5v5h-5z"/><path d="m57 67h5v5h-5z"/><path d="m62 67h5v5h-5z"/><path d="m67 67h5v5h-5z"/><path d="m82 67h5v5h-5z"/><path d="m92 67h5v5h-5z"/><path d="m97 67h5v5h-5z"/><path d="m107 67h5v5h-5z"/><path d="m117 67h5v5h-5z"/><path d="m127 67h5v5h-5z"/><path d="m132 67h5v5h-5z"/><path d="m137 67h5v5h-5z"/><path d="m147 67h5v5h-5z"/><path d="m157 67h5v5h-5z"/><path d="m167 67h5v5h-5z"/><path d="m172 67h5v5h-5z"/><path d="m17 72h5v5h-5z"/><path d="m27 72h5v5h-5z"/><path d="m32 72h5v5h-5z"/><path d="m52 72h5v5h-5z"/><path d="m57 72h5v5h-5z"/><path d="m62 72h5v5h-5z"/><path d="m77 72h5v5h-5z"/><path d="m102 72h5v5h-5z"/><path d="m112 72h5v5h-5z"/><path d="m117 72h5v5h-5z"/><path d="m122 72h5v5h-5z"/><path d="m127 72h5v5h-5z"/><path d="m132 72h5v5h-5z"/><path d="m157 72h5v5h-5z"/><path d="m162 72h5v5h-5z"/><path d="m17 77h5v5h-5z"/><path d="m27 77h5v5h-5z"/><path d="m47 77h5v5h-5z"/><path d="m52 77h5v5h-5z"/><path d="m72 77h5v5h-5z"/><path d="m82 77h5v5h-5z"/><path d="m102 77h5v5h-5z"/><path d="m117 77h5v5h-5z"/><path d="m122 77h5v5h-5z"/><path d="m127 77h5v5h-5z"/><path d="m132 77h5v5h-5z"/><path d="m142 77h5v5h-5z"/><path d="m147 77h5v5h-5z"/><path d="m152 77h5v5h-5z"/><path d="m157 77h5v5h-5z"/><path d="m162 77h5v5h-5z"/><path d="m172 77h5v5h-5z"/><path d="m177 77h5v5h-5z"/><path d="m17 82h5v5h-5z"/><path d="m27 82h5v5h-5z"/><path d="m37 82h5v5h-5z"/><path d="m52 82h5v5h-5z"/><path d="m57 82h5v5h-5z"/><path d="m67 82h5v5h-5z"/><path d="m77 82h5v5h-5z"/><path d="m82 82h5v5h-5z"/><path d="m87 82h5v5h-5z"/><path d="m97 82h5v5h-5z"/><path d="m102 82h5v5h-5z"/><path d="m107 82h5v5h-5z"/><path d="m117 82h5v5h-5z"/><path d="m122 82h5v5h-5z"/><path d="m132 82h5v5h-5z"/><path d="m152 82h5v5h-5z"/><path d="m27 87h5v5h-5z"/><path d="m47 87h5v5h-5z"/><path d="m52 87h5v5h-5z"/><path d="m62 87h5v5h-5z"/><path d="m72 87h5v5h-5z"/><path d="m77 87h5v5h-5z"/><path d="m82 87h5v5h-5z"/><path d="m92 87h5v5h-5z"/><path d="m107 87h5v5h-5z"/><path d="m117 87h5v5h-5z"/><path d="m122 87h5v5h-5z"/><path d="m127 87h5v5h-5z"/><path d="m132 87h5v5h-5z"/><path d="m137 87h5v5h-5z"/><path d="m147 87h5v5h-5z"/><path d="m162 87h5v5h-5z"/><path d="m167 87h5v5h-5z"/><path d="m172 87h5v5h-5z"/><path d="m17 92h5v5h-5z"/><path d="m27 92h5v5h-5z"/><path d="m32 92h5v5h-5z"/><path d="m42 92h5v5h-5z"/><path d="m52 92h5v5h-5z"/><path d="m62 92h5v5h-5z"/><path d="m67 92h5v5h-5z"/><path d="m72 92h5v5h-5z"/><path d="m87 92h5v5h-5z"/><path d="m92 92h5v5h-5z"/><path d="m97 92h5v5h-5z"/><path d="m102 92h5v5h-5z"/><path d="m117 92h5v5h-5z"/><path d="m122 92h5v5h-5z"/><path d="m127 92h5v5h-5z"/><path d="m132 92h5v5h-5z"/><path d="m162 92h5v5h-5z"/><path d="m17 97h5v5h-5z"/><path d="m27 97h5v5h-5z"/><path d="m32 97h5v5h-5z"/><path d="m37 97h5v5h-5z"/><path d="m42 97h5v5h-5z"/><path d="m47 97h5v5h-5z"/><path d="m52 97h5v5h-5z"/><path d="m62 97h5v5h-5z"/><path d="m67 97h5v5h-5z"/><path d="m77 97h5v5h-5z"/><path d="m82 97h5v5h-5z"/><path d="m92 97h5v5h-5z"/><path d="m97 97h5v5h-5z"/><path d="m112 97h5v5h-5z"/><path d="m117 97h5v5h-5z"/><path d="m122 97h5v5h-5z"/><path d="m127 97h5v5h-5z"/><path d="m137 97h5v5h-5z"/><path d="m147 97h5v5h-5z"/><path d="m157 97h5v5h-5z"/><path d="m177 97h5v5h-5z"/><path d="m22 102h5v5h-5z"/><path d="m27 102h5v5h-5z"/><path d="m37 102h5v5h-5z"/><path d="m42 102h5v5h-5z"/><path d="m57 102h5v5h-5z"/><path d="m62 102h5v5h-5z"/><path d="m67 102h5v5h-5z"/><path d="m82 102h5v5h-5z"/><path d="m87 102h5v5h-5z"/><path d="m92 102h5v5h-5z"/><path d="m102 102h5v5h-5z"/><path d="m107 102h5v5h-5z"/><path d="m132 102h5v5h-5z"/><path d="m152 102h5v5h-5z"/><path d="m162 102h5v5h-5z"/><path d="m17 107h5v5h-5z"/><path d="m22 107h5v5h-5z"/><path d="m27 107h5v5h-5z"/><path d="m32 107h5v5h-5z"/><path d="m37 107h5v5h-5z"/><path d="m47 107h5v5h-5z"/><path d="m57 107h5v5h-5z"/><path d="m92 107h5v5h-5z"/><path d="m122 107h5v5h-5z"/><path d="m127 107h5v5h-5z"/><path d="m132 107h5v5h-5z"/><path d="m147 107h5v5h-5z"/><path d="m167 107h5v5h-5z"/><path d="m172 107h5v5h-5z"/><path d="m32 112h5v5h-5z"/><path d="m37 112h5v5h-5z"/><path d="m42 112h5v5h-5z"/><path d="m52 112h5v5h-5z"/><path d="m57 112h5v5h-5z"/><path d="m77 112h5v5h-5z"/><path d="m87 112h5v5h-5z"/><path d="m102 112h5v5h-5z"/><path d="m107 112h5v5h-5z"/><path d="m112 112h5v5h-5z"/><path d="m122 112h5v5h-5z"/><path d="m132 112h5v5h-5z"/><path d="m137 112h5v5h-5z"/><path d="m147 112h5v5h-5z"/><path d="m152 112h5v5h-5z"/><path d="m162 112h5v5h-5z"/><path d="m17 117h5v5h-5z"/><path d="m37 117h5v5h-5z"/><path d="m47 117h5v5h-5z"/><path d="m57 117h5v5h-5z"/><path d="m62 117h5v5h-5z"/><path d="m67 117h5v5h-5z"/><path d="m72 117h5v5h-5z"/><path d="m82 117h5v5h-5z"/><path d="m87 117h5v5h-5z"/><path d="m97 117h5v5h-5z"/><path d="m112 117h5v5h-5z"/><path d="m117 117h5v5h-5z"/><path d="m122 117h5v5h-5z"/><path d="m127 117h5v5h-5z"/><path d="m142 117h5v5h-5z"/><path d="m147 117h5v5h-5z"/><path d="m157 117h5v5h-5z"/><path d="m177 117h5v5h-5z"/><path d="m17 122h5v5h-5z"/><path d="m27 122h5v5h-5z"/><path d="m32 122h5v5h-5z"/><path d="m37 122h5v5h-5z"/><path d="m42 122h5v5h-5z"/><path d="m52 122h5v5h-5z"/><path d="m57 122h5v5h-5z"/><path d="m67 122h5v5h-5z"/><path d="m77 122h5v5h-5z"/><path d="m87 122h5v5h-5z"/><path d="m92 122h5v5h-5z"/><path d="m97 122h5v5h-5z"/><path d="m107 122h5v5h-5z"/><path d="m122 122h5v5h-5z"/><path d="m132 122h5v5h-5z"/><path d="m152 122h5v5h-5z"/><path d="m162 122h5v5h-5z"/><path d="m37 127h5v5h-5z"/><path d="m47 127h5v5h-5z"/><path d="m62 127h5v5h-5z"/><path d="m67 127h5v5h-5z"/><path d="m72 127h5v5h-5z"/><path d="m77 127h5v5h-5z"/><path d="m82 127h5v5h-5z"/><path d="m87 127h5v5h-5z"/><path d="m92 127h5v5h-5z"/><path d="m102 127h5v5h-5z"/><path d="m107 127h5v5h-5z"/><path d="m122 127h5v5h-5z"/><path d="m132 127h5v5h-5z"/><path d="m137 127h5v5h-5z"/><path d="m167 127h5v5h-5z"/><path d="m172 127h5v5h-5z"/><path d="m52 132h5v5h-5z"/><path d="m72 132h5v5h-5z"/><path d="m82 132h5v5h-5z"/><path d="m92 132h5v5h-5z"/><path d="m97 132h5v5h-5z"/><path d="m102 132h5v5h-5z"/><path d="m112 132h5v5h-5z"/><path d="m117 132h5v5h-5z"/><path d="m122 132h5v5h-5z"/><path d="m132 132h5v5h-5z"/><path d="m142 132h5v5h-5z"/><path d="m147 132h5v5h-5z"/><path d="m157 132h5v5h-5z"/><path d="m17 137h5v5h-5z"/><path d="m22 137h5v5h-5z"/><path d="m27 137h5v5h-5z"/><path d="m37 137h5v5h-5z"/><path d="m42 137h5v5h-5z"/><path d="m47 137h5v5h-5z"/><path d="m67 137h5v5h-5z"/><path d="m77 137h5v5h-5z"/><path d="m82 137h5v5h-5z"/><path d="m92 137h5v5h-5z"/><path d="m117 137h5v5h-5z"/><path d="m122 137h5v5h-5z"/><path d="m127 137h5v5h-5z"/><path d="m132 137h5v5h-5z"/><path d="m137 137h5v5h-5z"/><path d="m142 137h5v5h-5z"/><path d="m147 137h5v5h-5z"/><path d="m152 137h5v5h-5z"/><path d="m157 137h5v5h-5z"/><path d="m172 137h5v5h-5z"/><path d="m57 142h5v5h-5z"/><path d="m62 142h5v5h-5z"/><path d="m82 142h5v5h-5z"/><path d="m87 142h5v5h-5z"/><path d="m97 142h5v5h-5z"/><path d="m117 142h5v5h-5z"/><path d="m132 142h5v5h-5z"/><path d="m137 142h5v5h-5z"/><path d="m157 142h5v5h-5z"/><path d="m172 142h5v5h-5z"/><path d="m17 147h5v5h-5z"/><path d="m22 147h5v5h-5z"/><path d="m27 147h5v5h-5z"/><path d="m32 147h5v5h-5z"/><path d="m37 147h5v5h-5z"/><path d="m42 147h5v5h-5z"/><path d="m47 147h5v5h-5z"/><path d="m62 147h5v5h-5z"/><path d="m67 147h5v5h-5z"/><path d="m92 147h5v5h-5z"/><path d="m117 147h5v5h-5z"/><path d="m127 147h5v5h-5z"/><path d="m137 147h5v5h-5z"/><path d="m147 147h5v5h-5z"/><path d="m157 147h5v5h-5z"/><path d="m162 147h5v5h-5z"/><path d="m167 147h5v5h-5z"/><path d="m172 147h5v5h-5z"/><path d="m17 152h5v5h-5z"/><path d="m47 152h5v5h-5z"/><path d="m57 152h5v5h-5z"/><path d="m77 152h5v5h-5z"/><path d="m87 152h5v5h-5z"/><path d="m92 152h5v5h-5z"/><path d="m97 152h5v5h-5z"/><path d="m102 152h5v5h-5z"/><path d="m112 152h5v5h-5z"/><path d="m122 152h5v5h-5z"/><path d="m127 152h5v5h-5z"/><path d="m132 152h5v5h-5z"/><path d="m137 152h5v5h-5z"/><path d="m157 152h5v5h-5z"/><path d="m17 157h5v5h-5z"/><path d="m27 157h5v5h-5z"/><path d="m32 157h5v5h-5z"/><path d="m37 157h5v5h-5z"/><path d="m47 157h5v5h-5z"/><path d="m57 157h5v5h-5z"/><path d="m72 157h5v5h-5z"/><path d="m82 157h5v5h-5z"/><path d="m87 157h5v5h-5z"/><path d="m92 157h5v5h-5z"/><path d="m102 157h5v5h-5z"/><path d="m117 157h5v5h-5z"/><path d="m122 157h5v5h-5z"/><path d="m127 157h5v5h-5z"/><path d="m137 157h5v5h-5z"/><path d="m142 157h5v5h-5z"/><path d="m147 157h5v5h-5z"/><path d="m152 157h5v5h-5z"/><path d="m157 157h5v5h-5z"/><path d="m172 157h5v5h-5z"/><path d="m177 157h5v5h-5z"/><path d="m17 162h5v5h-5z"/><path d="m27 162h5v5h-5z"/><path d="m32 162h5v5h-5z"/><path d="m37 162h5v5h-5z"/><path d="m47 162h5v5h-5z"/><path d="m62 162h5v5h-5z"/><path d="m67 162h5v5h-5z"/><path d="m77 162h5v5h-5z"/><path d="m97 162h5v5h-5z"/><path d="m102 162h5v5h-5z"/><path d="m107 162h5v5h-5z"/><path d="m122 162h5v5h-5z"/><path d="m137 162h5v5h-5z"/><path d="m142 162h5v5h-5z"/><path d="m147 162h5v5h-5z"/><path d="m157 162h5v5h-5z"/><path d="m172 162h5v5h-5z"/><path d="m177 162h5v5h-5z"/><path d="m17 167h5v5h-5z"/><path d="m27 167h5v5h-5z"/><path d="m32 167h5v5h-5z"/><path d="m37 167h5v5h-5z"/><path d="m47 167h5v5h-5z"/><path d="m62 167h5v5h-5z"/><path d="m67 167h5v5h-5z"/><path d="m72 167h5v5h-5z"/><path d="m77 167h5v5h-5z"/><path d="m82 167h5v5h-5z"/><path d="m87 167h5v5h-5z"/><path d="m92 167h5v5h-5z"/><path d="m97 167h5v5h-5z"/><path d="m102 167h5v5h-5z"/><path d="m107 167h5v5h-5z"/><path d="m117 167h5v5h-5z"/><path d="m122 167h5v5h-5z"/><path d="m132 167h5v5h-5z"/><path d="m137 167h5v5h-5z"/><path d="m142 167h5v5h-5z"/><path d="m147 167h5v5h-5z"/><path d="m157 167h5v5h-5z"/><path d="m162 167h5v5h-5z"/><path d="m172 167h5v5h-5z"/><path d="m17 172h5v5h-5z"/><path d="m47 172h5v5h-5z"/><path d="m57 172h5v5h-5z"/><path d="m62 172h5v5h-5z"/><path d="m67 172h5v5h-5z"/><path d="m72 172h5v5h-5z"/><path d="m82 172h5v5h-5z"/><path d="m92 172h5v5h-5z"/><path d="m97 172h5v5h-5z"/><path d="m102 172h5v5h-5z"/><path d="m112 172h5v5h-5z"/><path d="m117 172h5v5h-5z"/><path d="m122 172h5v5h-5z"/><path d="m127 172h5v5h-5z"/><path d="m137 172h5v5h-5z"/><path d="m157 172h5v5h-5z"/><path d="m162 172h5v5h-5z"/><path d="m17 177h5v5h-5z"/><path d="m22 177h5v5h-5z"/><path d="m27 177h5v5h-5z"/><path d="m32 177h5v5h-5z"/><path d="m37 177h5v5h-5z"/><path d="m42 177h5v5h-5z"/><path d="m47 177h5v5h-5z"/><path d="m57 177h5v5h-5z"/><path d="m77 177h5v5h-5z"/><path d="m82 177h5v5h-5z"/><path d="m92 177h5v5h-5z"/><path d="m117 177h5v5h-5z"/><path d="m122 177h5v5h-5z"/><path d="m127 177h5v5h-5z"/><path d="m132 177h5v5h-5z"/><path d="m137 177h5v5h-5z"/><path d="m142 177h5v5h-5z"/><path d="m157 177h5v5h-5z"/><path d="m162 177h5v5h-5z"/><path d="m177 177h5v5h-5z"/></g></svg>